<svg width="90" height="90" viewBox="0 0 49 42" fill="none" xmlns="http://www.w3.org/2000/svg">
<path d="M34.8654 36.2067C34.8654 35.935 34.6458 35.7153 34.374 35.7153H33.0386C32.7669 35.7153 32.5472 35.935 32.5472 36.2067V37.5421C32.5472 37.8138 32.7669 38.0335 33.0386 38.0335H34.374C34.6458 38.0335 34.8654 37.8138 34.8654 37.5421V36.2067Z" fill="#44B2AB"/>
<path d="M31.3332 22.4879C31.3332 22.2162 31.1135 21.9965 30.8418 21.9965H29.5064C29.2347 21.9965 29.015 22.2162 29.015 22.4879V23.8233C29.015 24.095 29.2347 24.3147 29.5064 24.3147H30.8418C31.1135 24.3147 31.3332 24.095 31.3332 23.8233V22.4879Z" fill="#44B2AB"/>
<path d="M34.8654 29.3441C34.8654 29.0724 34.6457 28.8528 34.374 28.8528H33.0386C32.7669 28.8528 32.5472 29.0724 32.5472 29.3441V30.6796C32.5472 30.9513 32.7669 31.1709 33.0386 31.1709H34.374C34.6457 31.1709 34.8654 30.9513 34.8654 30.6796V29.3441Z" fill="#44B2AB"/>
<path d="M34.8654 32.7721C34.8654 32.5004 34.6458 32.2807 34.374 32.2807H33.0386C32.7669 32.2807 32.5472 32.5004 32.5472 32.7721V34.1075C32.5472 34.3792 32.7669 34.5989 33.0386 34.5989H34.374C34.6458 34.5989 34.8654 34.3792 34.8654 34.1075V32.7721Z" fill="#44B2AB"/>
<path d="M31.3332 15.6315C31.3332 15.3598 31.1135 15.1401 30.8418 15.1401H29.5064C29.2347 15.1401 29.015 15.3598 29.015 15.6315V16.9669C29.015 17.2386 29.2347 17.4583 29.5064 17.4583H30.8418C31.1135 17.4583 31.3332 17.2386 31.3332 16.9669V15.6315Z" fill="#44B2AB"/>
<path d="M36.5707 10.6024H37.9062C38.1779 10.6024 38.3975 10.3827 38.3975 10.111V8.77557C38.3975 8.50386 38.1779 8.28418 37.9062 8.28418H36.5707C36.299 8.28418 36.0793 8.50386 36.0793 8.77557V10.111C36.0793 10.3827 36.299 10.6024 36.5707 10.6024Z" fill="#44B2AB"/>
<path d="M34.374 39.1433H33.0386C32.7669 39.1433 32.5472 39.363 32.5472 39.6347V40.9701C32.5472 41.2418 32.7669 41.4615 33.0386 41.4615H34.374C34.6457 41.4615 34.8654 41.2418 34.8654 40.9701V39.6347C34.8654 39.363 34.6457 39.1433 34.374 39.1433Z" fill="#44B2AB"/>
<path d="M34.8654 25.9161C34.8654 25.6444 34.6458 25.4247 34.374 25.4247H33.0386C32.7669 25.4247 32.5472 25.6444 32.5472 25.9161V27.2516C32.5472 27.5233 32.7669 27.7429 33.0386 27.7429H34.374C34.6458 27.7429 34.8654 27.5233 34.8654 27.2516V25.9161Z" fill="#44B2AB"/>
<path d="M34.3566 0H33.0212C32.7495 0 32.5298 0.219679 32.5298 0.491388V1.82681C32.5298 2.09851 32.7495 2.31819 33.0212 2.31819H34.3566C34.6283 2.31819 34.848 2.09851 34.848 1.82681V0.491388C34.848 0.219679 34.6283 0 34.3566 0Z" fill="#44B2AB"/>
<path d="M36.0794 13.5389C36.0794 13.8106 36.2991 14.0303 36.5708 14.0303H37.9062C38.1779 14.0303 38.3976 13.8106 38.3976 13.5389V12.2035C38.3976 11.9318 38.1779 11.7121 37.9062 11.7121H36.5708C36.2991 11.7121 36.0794 11.9318 36.0794 12.2035V13.5389Z" fill="#44B2AB"/>
<path d="M34.8654 12.2035C34.8654 11.9318 34.6457 11.7121 34.374 11.7121H33.0386C32.7669 11.7121 32.5472 11.9318 32.5472 12.2035V13.5389C32.5472 13.8106 32.7669 14.0303 33.0386 14.0303H34.374C34.6457 14.0303 34.8654 13.8106 34.8654 13.5389V12.2035Z" fill="#44B2AB"/>
<path d="M34.8654 22.4879C34.8654 22.2162 34.6458 21.9965 34.374 21.9965H33.0386C32.7669 21.9965 32.5472 22.2162 32.5472 22.4879V23.8233C32.5472 24.095 32.7669 24.3147 33.0386 24.3147H34.374C34.6458 24.3147 34.8654 24.095 34.8654 23.8233V22.4879Z" fill="#44B2AB"/>
<path d="M34.8654 15.6315C34.8654 15.3598 34.6458 15.1401 34.374 15.1401H33.0386C32.7669 15.1401 32.5472 15.3598 32.5472 15.6315V16.9669C32.5472 17.2386 32.7669 17.4583 33.0386 17.4583H34.374C34.6458 17.4583 34.8654 17.2386 34.8654 16.9669V15.6315Z" fill="#44B2AB"/>
<path d="M34.8654 19.06C34.8654 18.7883 34.6457 18.5686 34.374 18.5686H33.0386C32.7669 18.5686 32.5472 18.7883 32.5472 19.06V20.3954C32.5472 20.6671 32.7669 20.8868 33.0386 20.8868H34.374C34.6457 20.8868 34.8654 20.6671 34.8654 20.3954V19.06Z" fill="#44B2AB"/>
<path d="M30.8186 3.42795H29.4832C29.2115 3.42795 28.9918 3.64763 28.9918 3.91934V5.25476C28.9918 5.52647 29.2115 5.74615 29.4832 5.74615H30.8186C31.0903 5.74615 31.31 5.52647 31.31 5.25476V3.91934C31.3158 3.64763 31.0903 3.42795 30.8186 3.42795Z" fill="#44B2AB"/>
<path d="M7.98362 31.3909L8.61375 32.5356C9.24389 32.154 9.89714 31.8476 10.5851 31.8476C11.5158 31.8476 11.8222 32.4489 11.8511 33.1946C8.96062 33.501 7.71191 34.293 7.71191 35.8076C7.71191 37.0332 8.56173 37.8888 9.80465 37.8888C10.6371 37.8888 11.354 37.4784 11.9841 36.9407H12.0303L12.1633 37.7154H13.5681V33.5415C13.5681 31.547 12.6778 30.4602 10.903 30.4602C9.78152 30.466 8.7814 30.8938 7.98362 31.3909ZM11.8511 35.7961C11.3482 36.2643 10.9262 36.5418 10.3596 36.5418C9.77574 36.5418 9.36529 36.2759 9.36529 35.6689C9.36529 34.9752 9.98386 34.4838 11.8454 34.2468V35.7961H11.8511Z" fill="#44B2AB"/>
<path d="M14.5508 31.9979H15.5567V35.3046C15.5567 36.8482 16.1753 37.8888 17.8228 37.8888C18.4067 37.8888 18.9039 37.7558 19.2854 37.6286L18.9964 36.3684C18.7941 36.4493 18.5108 36.5244 18.268 36.5244C17.6032 36.5244 17.2736 36.1256 17.2736 35.2989V31.9979H19.0658V30.6336H17.2736V28.7085H15.8515L15.6492 30.6336L14.5566 30.7087V31.9979H14.5508Z" fill="#44B2AB"/>
<path d="M15.0249 15.1982V23.7599C15.0249 25.0607 15.4816 25.87 16.7303 25.87C17.1523 25.87 17.4472 25.8007 17.6611 25.7197L17.4414 24.3959C17.3084 24.4248 17.2506 24.4248 17.1754 24.4248C16.9962 24.4248 16.8055 24.2745 16.8055 23.8467V15.1982H15.0249Z" fill="#44B2AB"/>
<path d="M13.3657 18.3779H11.5909V25.6909H13.3657V18.3779Z" fill="#44B2AB"/>
<path d="M0 34.1832C0 36.5129 1.13886 37.8888 2.90208 37.8888C3.65361 37.8888 4.37624 37.4784 4.89653 36.9581H4.94278L5.06996 37.7154H6.47475V27.5581H4.75779V30.1018L4.82138 31.2348C4.28374 30.7608 3.78079 30.4602 2.98301 30.4602C1.44526 30.466 0 31.8765 0 34.1832ZM4.76357 32.4489V35.692C4.31265 36.2354 3.86173 36.4667 3.32987 36.4667C2.33554 36.4667 1.76321 35.6805 1.76321 34.16C1.76321 32.7032 2.48584 31.8765 3.35878 31.8765C3.82704 31.8823 4.29531 32.0326 4.76357 32.4489Z" fill="#44B2AB"/>
<path d="M7.58469 24.5399C6.86206 24.5399 6.23193 24.2335 5.58446 23.7306L4.76355 24.8521C5.4804 25.4417 6.54411 25.8695 7.53844 25.8695C9.39994 25.8695 10.4001 24.8521 10.4001 23.586C10.4001 22.2275 9.30166 21.7419 8.31888 21.3777C7.53266 21.0886 6.79847 20.8747 6.79847 20.3082C6.79847 19.863 7.13955 19.5277 7.85062 19.5277C8.41716 19.5277 8.93167 19.7879 9.44618 20.1637L10.2555 19.0768C9.6543 18.6143 8.83918 18.1923 7.80437 18.1923C6.15678 18.1923 5.12197 19.1115 5.12197 20.3949C5.12197 21.6147 6.20881 22.1697 7.16268 22.5281C7.93733 22.8229 8.72356 23.0946 8.72356 23.6901C8.72934 24.1815 8.36513 24.5399 7.58469 24.5399Z" fill="#44B2AB"/>
<path d="M12.487 15.1401C11.8626 15.1401 11.4001 15.5448 11.4001 16.1345C11.4001 16.7126 11.8626 17.1288 12.487 17.1288C13.1113 17.1288 13.5738 16.7126 13.5738 16.1345C13.568 15.5448 13.1056 15.1401 12.487 15.1401Z" fill="#44B2AB"/>
<path d="M31.3332 32.7721C31.3332 32.5004 31.1135 32.2807 30.8418 32.2807H29.5064C29.2347 32.2807 29.015 32.5004 29.015 32.7721V34.1075C29.015 34.3792 29.2347 34.5989 29.5064 34.5989H30.8418C31.1135 34.5989 31.3332 34.3792 31.3332 34.1075V32.7721Z" fill="#44B2AB"/>
<path d="M30.8418 35.7153H29.5064C29.2347 35.7153 29.015 35.935 29.015 36.2067V37.5421C29.015 37.8138 29.2347 38.0335 29.5064 38.0335H30.8418C31.1135 38.0335 31.3332 37.8138 31.3332 37.5421V36.2067C31.3332 35.935 31.1135 35.7153 30.8418 35.7153Z" fill="#44B2AB"/>
<path d="M31.3332 25.9161C31.3332 25.6444 31.1135 25.4247 30.8418 25.4247H29.5064C29.2347 25.4247 29.015 25.6444 29.015 25.9161V27.2516C29.015 27.5233 29.2347 27.7429 29.5064 27.7429H30.8418C31.1135 27.7429 31.3332 27.5233 31.3332 27.2516V25.9161Z" fill="#44B2AB"/>
<path d="M31.3332 29.3441C31.3332 29.0724 31.1135 28.8528 30.8418 28.8528H29.5064C29.2347 28.8528 29.015 29.0724 29.015 29.3441V30.6796C29.015 30.9513 29.2347 31.1709 29.5064 31.1709H30.8418C31.1135 31.1709 31.3332 30.9513 31.3332 30.6796V29.3441Z" fill="#44B2AB"/>
<path d="M25.9511 9.18001H27.2865C27.5582 9.18001 27.7779 8.96033 27.7779 8.68862V7.3532C27.7779 7.0815 27.5582 6.86182 27.2865 6.86182H25.9511C25.6794 6.86182 25.4597 7.0815 25.4597 7.3532V8.68862C25.4597 8.95455 25.6794 9.18001 25.9511 9.18001Z" fill="#44B2AB"/>
<path d="M19.0831 15.1982V25.6908H20.8174V23.8408L21.9332 22.5574L23.7889 25.6908H25.714L22.9506 21.3608L25.4654 18.3778H23.5287L20.8695 21.6845H20.8174V15.1982H19.0831Z" fill="#44B2AB"/>
<path d="M19.8578 35.8076C19.8578 37.0332 20.7077 37.8888 21.9506 37.8888C22.783 37.8888 23.4999 37.4784 24.13 36.9407H24.1763L24.3092 37.7154H25.714V33.5415C25.714 31.547 24.8238 30.4602 23.049 30.4602C21.9275 30.4602 20.9216 30.8938 20.1296 31.3909L20.7597 32.5356C21.3898 32.154 22.0431 31.8476 22.731 31.8476C23.6618 31.8476 23.9682 32.4489 23.9971 33.1946C21.1066 33.501 19.8578 34.293 19.8578 35.8076ZM23.9971 34.2525V35.7961C23.4941 36.2643 23.0721 36.5418 22.5056 36.5418C21.9217 36.5418 21.5112 36.2759 21.5112 35.6689C21.517 34.9809 22.1356 34.4896 23.9971 34.2525Z" fill="#44B2AB"/>
<path d="M31.3332 19.06C31.3332 18.7883 31.1135 18.5686 30.8418 18.5686H29.5064C29.2347 18.5686 29.015 18.7883 29.015 19.06V20.3954C29.015 20.6671 29.2347 20.8868 29.5064 20.8868H30.8418C31.1135 20.8868 31.3332 20.6671 31.3332 20.3954V19.06Z" fill="#44B2AB"/>
<path d="M39.6116 34.1139C39.6116 34.3856 39.8313 34.6053 40.103 34.6053H41.4384C41.7101 34.6053 41.9298 34.3856 41.9298 34.1139V32.7785C41.9298 32.5068 41.7101 32.2871 41.4384 32.2871H40.103C39.8313 32.2871 39.6116 32.5068 39.6116 32.7785V34.1139Z" fill="#44B2AB"/>
<path d="M43.641 10.6024H44.9765C45.2482 10.6024 45.4679 10.3827 45.4679 10.111V8.77557C45.4679 8.50386 45.2482 8.28418 44.9765 8.28418H43.641C43.3693 8.28418 43.1497 8.50386 43.1497 8.77557V10.111C43.1497 10.3827 43.3693 10.6024 43.641 10.6024Z" fill="#44B2AB"/>
<path d="M43.1496 20.3954C43.1496 20.6671 43.3693 20.8868 43.641 20.8868H44.9764C45.2481 20.8868 45.4678 20.6671 45.4678 20.3954V19.06C45.4678 18.7883 45.2481 18.5686 44.9764 18.5686H43.641C43.3693 18.5686 43.1496 18.7883 43.1496 19.06V20.3954Z" fill="#44B2AB"/>
<path d="M39.6116 40.9701C39.6116 41.2418 39.8313 41.4615 40.103 41.4615H41.4384C41.7101 41.4615 41.9298 41.2418 41.9298 40.9701V39.6347C41.9298 39.363 41.7101 39.1433 41.4384 39.1433H40.103C39.8313 39.1433 39.6116 39.363 39.6116 39.6347V40.9701Z" fill="#44B2AB"/>
<path d="M39.6116 37.5421C39.6116 37.8138 39.8313 38.0335 40.103 38.0335H41.4384C41.7101 38.0335 41.9298 37.8138 41.9298 37.5421V36.2067C41.9298 35.935 41.7101 35.7153 41.4384 35.7153H40.103C39.8313 35.7153 39.6116 35.935 39.6116 36.2067V37.5421Z" fill="#44B2AB"/>
<path d="M43.1496 13.5389C43.1496 13.8106 43.3693 14.0303 43.641 14.0303H44.9764C45.2481 14.0303 45.4678 13.8106 45.4678 13.5389V12.2035C45.4678 11.9318 45.2481 11.7121 44.9764 11.7121H43.641C43.3693 11.7121 43.1496 11.9318 43.1496 12.2035V13.5389Z" fill="#44B2AB"/>
<path d="M43.1497 23.8234C43.1497 24.0951 43.3693 24.3148 43.641 24.3148H44.9765C45.2482 24.3148 45.4679 24.0951 45.4679 23.8234V22.488C45.4679 22.2163 45.2482 21.9966 44.9765 21.9966H43.641C43.3693 21.9966 43.1497 22.2163 43.1497 22.488V23.8234Z" fill="#44B2AB"/>
<path d="M43.1497 16.9669C43.1497 17.2387 43.3693 17.4583 43.641 17.4583H44.9765C45.2482 17.4583 45.4679 17.2387 45.4679 16.9669V15.6315C45.4679 15.3598 45.2482 15.1401 44.9765 15.1401H43.641C43.3693 15.1401 43.1497 15.3598 43.1497 15.6315V16.9669Z" fill="#44B2AB"/>
<path d="M47.1732 14.0303H48.5086C48.7803 14.0303 49 13.8106 49 13.5389V12.2035C49 11.9318 48.7803 11.7121 48.5086 11.7121H47.1732C46.9015 11.7121 46.6818 11.9318 46.6818 12.2035V13.5389C46.6818 13.8106 46.9015 14.0303 47.1732 14.0303Z" fill="#44B2AB"/>
<path d="M46.6818 20.3954C46.6818 20.6671 46.9015 20.8868 47.1732 20.8868H48.5086C48.7803 20.8868 49 20.6671 49 20.3954V19.06C49 18.7883 48.7803 18.5686 48.5086 18.5686H47.1732C46.9015 18.5686 46.6818 18.7883 46.6818 19.06V20.3954Z" fill="#44B2AB"/>
<path d="M46.6818 23.8233C46.6818 24.095 46.9014 24.3147 47.1732 24.3147H48.5086C48.7803 24.3147 49 24.095 49 23.8233V22.4879C49 22.2162 48.7803 21.9965 48.5086 21.9965H47.1732C46.9014 21.9965 46.6818 22.2162 46.6818 22.4879V23.8233Z" fill="#44B2AB"/>
<path d="M46.6818 16.9669C46.6818 17.2386 46.9014 17.4583 47.1732 17.4583H48.5086C48.7803 17.4583 49 17.2386 49 16.9669V15.6315C49 15.3598 48.7803 15.1401 48.5086 15.1401H47.1732C46.9014 15.1401 46.6818 15.3598 46.6818 15.6315V16.9669Z" fill="#44B2AB"/>
<path d="M43.1497 27.2516C43.1497 27.5233 43.3693 27.743 43.641 27.743H44.9765C45.2482 27.743 45.4679 27.5233 45.4679 27.2516V25.9162C45.4679 25.6445 45.2482 25.4248 44.9765 25.4248H43.641C43.3693 25.4248 43.1497 25.6445 43.1497 25.9162V27.2516Z" fill="#44B2AB"/>
<path d="M43.1497 34.1139C43.1497 34.3856 43.3693 34.6053 43.641 34.6053H44.9765C45.2482 34.6053 45.4679 34.3856 45.4679 34.1139V32.7785C45.4679 32.5068 45.2482 32.2871 44.9765 32.2871H43.641C43.3693 32.2871 43.1497 32.5068 43.1497 32.7785V34.1139Z" fill="#44B2AB"/>
<path d="M43.1497 37.5421C43.1497 37.8138 43.3693 38.0335 43.641 38.0335H44.9765C45.2482 38.0335 45.4679 37.8138 45.4679 37.5421V36.2067C45.4679 35.935 45.2482 35.7153 44.9765 35.7153H43.641C43.3693 35.7153 43.1497 35.935 43.1497 36.2067V37.5421Z" fill="#44B2AB"/>
<path d="M40.103 10.6024H41.4384C41.7101 10.6024 41.9298 10.3827 41.9298 10.111V8.77557C41.9298 8.50386 41.7101 8.28418 41.4384 8.28418H40.103C39.8313 8.28418 39.6116 8.50386 39.6116 8.77557V10.111C39.6116 10.3827 39.8313 10.6024 40.103 10.6024Z" fill="#44B2AB"/>
<path d="M36.0793 34.1139C36.0793 34.3856 36.299 34.6053 36.5707 34.6053H37.9062C38.1779 34.6053 38.3975 34.3856 38.3975 34.1139V32.7785C38.3975 32.5068 38.1779 32.2871 37.9062 32.2871H36.5707C36.299 32.2871 36.0793 32.5068 36.0793 32.7785V34.1139Z" fill="#44B2AB"/>
<path d="M36.0793 37.5421C36.0793 37.8138 36.299 38.0335 36.5707 38.0335H37.9062C38.1779 38.0335 38.3975 37.8138 38.3975 37.5421V36.2067C38.3975 35.935 38.1779 35.7153 37.9062 35.7153H36.5707C36.299 35.7153 36.0793 35.935 36.0793 36.2067V37.5421Z" fill="#44B2AB"/>
<path d="M36.0794 30.6796C36.0794 30.9513 36.2991 31.1709 36.5708 31.1709H37.9062C38.1779 31.1709 38.3976 30.9513 38.3976 30.6796V29.3441C38.3976 29.0724 38.1779 28.8528 37.9062 28.8528H36.5708C36.2991 28.8528 36.0794 29.0724 36.0794 29.3441V30.6796Z" fill="#44B2AB"/>
<path d="M36.0793 27.2516C36.0793 27.5233 36.299 27.743 36.5707 27.743H37.9062C38.1779 27.743 38.3975 27.5233 38.3975 27.2516V25.9162C38.3975 25.6445 38.1779 25.4248 37.9062 25.4248H36.5707C36.299 25.4248 36.0793 25.6445 36.0793 25.9162V27.2516Z" fill="#44B2AB"/>
<path d="M36.0794 20.3954C36.0794 20.6671 36.2991 20.8868 36.5708 20.8868H37.9062C38.1779 20.8868 38.3976 20.6671 38.3976 20.3954V19.06C38.3976 18.7883 38.1779 18.5686 37.9062 18.5686H36.5708C36.2991 18.5686 36.0794 18.7883 36.0794 19.06V20.3954Z" fill="#44B2AB"/>
<path d="M36.0793 23.8234C36.0793 24.0951 36.299 24.3148 36.5707 24.3148H37.9062C38.1779 24.3148 38.3975 24.0951 38.3975 23.8234V22.488C38.3975 22.2163 38.1779 21.9966 37.9062 21.9966H36.5707C36.299 21.9966 36.0793 22.2163 36.0793 22.488V23.8234Z" fill="#44B2AB"/>
<path d="M36.0794 40.9701C36.0794 41.2418 36.2991 41.4615 36.5708 41.4615H37.9062C38.1779 41.4615 38.3976 41.2418 38.3976 40.9701V39.6347C38.3976 39.363 38.1779 39.1433 37.9062 39.1433H36.5708C36.2991 39.1433 36.0794 39.363 36.0794 39.6347V40.9701Z" fill="#44B2AB"/>
<path d="M39.6116 20.3954C39.6116 20.6671 39.8313 20.8868 40.103 20.8868H41.4384C41.7101 20.8868 41.9298 20.6671 41.9298 20.3954V19.06C41.9298 18.7883 41.7101 18.5686 41.4384 18.5686H40.103C39.8313 18.5686 39.6116 18.7883 39.6116 19.06V20.3954Z" fill="#44B2AB"/>
<path d="M39.6116 13.5389C39.6116 13.8106 39.8313 14.0303 40.103 14.0303H41.4384C41.7101 14.0303 41.9298 13.8106 41.9298 13.5389V12.2035C41.9298 11.9318 41.7101 11.7121 41.4384 11.7121H40.103C39.8313 11.7121 39.6116 11.9318 39.6116 12.2035V13.5389Z" fill="#44B2AB"/>
<path d="M39.6116 16.9669C39.6116 17.2387 39.8313 17.4583 40.103 17.4583H41.4384C41.7101 17.4583 41.9298 17.2387 41.9298 16.9669V15.6315C41.9298 15.3598 41.7101 15.1401 41.4384 15.1401H40.103C39.8313 15.1401 39.6116 15.3598 39.6116 15.6315V16.9669Z" fill="#44B2AB"/>
<path d="M39.6116 23.8234C39.6116 24.0951 39.8313 24.3148 40.103 24.3148H41.4384C41.7101 24.3148 41.9298 24.0951 41.9298 23.8234V22.488C41.9298 22.2163 41.7101 21.9966 41.4384 21.9966H40.103C39.8313 21.9966 39.6116 22.2163 39.6116 22.488V23.8234Z" fill="#44B2AB"/>
<path d="M39.6116 27.2516C39.6116 27.5233 39.8313 27.743 40.103 27.743H41.4384C41.7101 27.743 41.9298 27.5233 41.9298 27.2516V25.9162C41.9298 25.6445 41.7101 25.4248 41.4384 25.4248H40.103C39.8313 25.4248 39.6116 25.6445 39.6116 25.9162V27.2516Z" fill="#44B2AB"/>
<path d="M39.6116 30.6796C39.6116 30.9513 39.8313 31.1709 40.103 31.1709H41.4384C41.7101 31.1709 41.9298 30.9513 41.9298 30.6796V29.3441C41.9298 29.0724 41.7101 28.8528 41.4384 28.8528H40.103C39.8313 28.8528 39.6116 29.0724 39.6116 29.3441V30.6796Z" fill="#44B2AB"/>
<path d="M36.0793 16.9669C36.0793 17.2387 36.299 17.4583 36.5707 17.4583H37.9062C38.1779 17.4583 38.3975 17.2387 38.3975 16.9669V15.6315C38.3975 15.3598 38.1779 15.1401 37.9062 15.1401H36.5707C36.299 15.1401 36.0793 15.3598 36.0793 15.6315V16.9669Z" fill="#44B2AB"/>
</svg>
