<svg width="400" height="400" viewBox="0 0 665 604" fill="none" xmlns="http://www.w3.org/2000/svg">
<path d="M546.865 365.934C582.254 330.545 582.254 273.321 546.865 237.932L372.934 64.0008C337.545 28.6121 280.321 28.6121 244.932 64.0007L71.0007 237.932C35.6121 273.321 35.6121 330.545 71.0008 365.934L244.932 539.865C280.321 575.254 337.545 575.254 372.934 539.865L546.865 365.934Z" fill="#42B2AA"/>
<g filter="url(#filter0_d)">
<path d="M105.894 443.311H518.013C522.386 443.311 525.939 439.767 525.939 435.406V172.905C525.939 168.544 522.386 165 518.013 165H105.894C101.522 165 97.9689 168.544 97.9689 172.905V435.679C97.9689 440.04 101.522 443.311 105.894 443.311Z" fill="black"/>
</g>
<path d="M123.384 420.414H499.976C503.802 420.414 506.808 417.415 506.808 413.599V194.712C506.808 190.896 503.802 187.897 499.976 187.897H123.384C119.558 187.897 116.552 190.896 116.552 194.712V413.599C116.552 417.415 119.832 420.414 123.384 420.414Z" fill="url(#paint0_radial)"/>
<path d="M368.797 265.857L409.517 289.845H496.423" stroke="#002E57" stroke-width="2" stroke-miterlimit="10" stroke-linecap="round" stroke-linejoin="round"/>
<path d="M369.617 341.364L408.97 322.283H493.417" stroke="#002E57" stroke-width="2" stroke-miterlimit="10" stroke-linecap="round" stroke-linejoin="round"/>
<path d="M380.276 305.928H499.156" stroke="#002E57" stroke-width="2" stroke-miterlimit="10" stroke-linecap="round" stroke-linejoin="round"/>
<path d="M253.47 265.857L212.476 289.845H125.844" stroke="#002E57" stroke-width="2" stroke-miterlimit="10" stroke-linecap="round" stroke-linejoin="round"/>
<path d="M252.377 341.364L213.296 322.283H128.577" stroke="#002E57" stroke-width="2" stroke-miterlimit="10" stroke-linecap="round" stroke-linejoin="round"/>
<path d="M241.718 305.928H123.111" stroke="#002E57" stroke-width="2" stroke-miterlimit="10" stroke-linecap="round" stroke-linejoin="round"/>
<path d="M330.263 250.32L345.568 224.151H394.486" stroke="#002E57" stroke-width="2" stroke-miterlimit="10" stroke-linecap="round" stroke-linejoin="round"/>
<path d="M345.568 358.537L365.791 389.339H414.983" stroke="#002E57" stroke-width="2" stroke-miterlimit="10" stroke-linecap="round" stroke-linejoin="round"/>
<path d="M371.257 265.585L414.983 246.776" stroke="#002E57" stroke-width="2" stroke-miterlimit="10" stroke-linecap="round" stroke-linejoin="round"/>
<path d="M369.617 341.364L408.697 361.808" stroke="#002E57" stroke-width="2" stroke-miterlimit="10" stroke-linecap="round" stroke-linejoin="round"/>
<path d="M311.954 211.886V398.335" stroke="#002E57" stroke-width="2" stroke-miterlimit="10" stroke-linecap="round" stroke-linejoin="round"/>
<path d="M295.282 250.32L280.251 224.152H231.059" stroke="#002E57" stroke-width="2" stroke-miterlimit="10" stroke-linecap="round" stroke-linejoin="round"/>
<path d="M280.252 358.537L259.755 389.339H210.563" stroke="#002E57" stroke-width="2" stroke-miterlimit="10" stroke-linecap="round" stroke-linejoin="round"/>
<path d="M254.289 265.584L210.563 246.776" stroke="#002E57" stroke-width="2" stroke-miterlimit="10" stroke-linecap="round" stroke-linejoin="round"/>
<path d="M255.929 341.364L217.122 361.808" stroke="#002E57" stroke-width="2" stroke-miterlimit="10" stroke-linecap="round" stroke-linejoin="round"/>
<path d="M389.841 301.566C389.841 301.293 389.841 301.293 389.841 301.566C392.027 298.295 393.12 295.024 393.394 291.208C394.213 284.666 392.3 278.396 388.201 273.217C387.381 272.399 386.288 271.582 385.195 271.309C385.195 271.036 385.468 270.764 385.468 270.491C386.015 269.401 386.015 268.038 385.741 266.948C383.009 254.409 372.077 245.413 359.232 244.868C357.046 244.868 354.587 244.868 352.4 245.413C351.854 245.413 351.58 245.686 351.307 245.686C351.034 245.958 350.761 245.958 350.487 246.231C350.214 245.686 349.667 245.141 349.121 244.595C344.202 240.507 338.463 238.053 332.177 237.236C325.345 236.418 318.513 238.053 312.5 241.324C312.227 241.324 312.227 241.597 311.954 241.597C311.68 241.597 311.68 241.324 311.407 241.324C305.395 237.781 298.562 236.418 291.73 237.236C285.445 238.053 279.432 240.507 274.786 244.595C274.24 245.141 273.693 245.686 273.42 246.231C273.147 245.958 272.873 245.958 272.6 245.686C272.327 245.413 271.78 245.413 271.507 245.413C269.321 244.868 266.861 244.868 264.675 244.868C251.83 245.413 240.899 254.409 238.166 266.948C237.892 268.038 238.166 269.401 238.712 270.491C238.712 270.764 238.986 271.036 238.986 271.309C237.892 271.582 236.799 272.127 235.979 273.217C231.88 278.396 229.967 284.666 230.787 291.208C231.06 294.751 232.427 298.022 234.34 301.293L234.613 301.566C233.793 302.111 233.247 302.929 232.7 303.747C231.06 307.563 230.514 311.652 231.06 315.741C231.88 322.555 235.706 328.825 241.172 332.914C240.625 335.094 240.625 337.002 240.899 339.183C241.172 341.636 241.992 343.817 243.085 345.998C242.812 354.721 248.824 362.08 257.296 363.988C257.842 363.988 258.389 363.988 258.936 363.988C259.209 364.806 259.756 365.624 260.575 366.169C264.128 368.895 268.501 370.258 272.873 370.258C276.699 374.619 282.165 377.345 288.177 377.345C288.997 377.345 289.817 377.345 290.364 377.345C296.923 376.527 302.662 372.711 305.668 366.987C306.215 365.897 306.488 364.534 306.215 363.443C306.488 363.443 306.761 363.171 307.034 362.898C308.947 361.808 310.86 360.172 312.227 358.264C313.593 360.172 315.506 361.535 317.419 362.898C317.693 363.171 317.966 363.171 318.239 363.443C317.966 364.534 318.239 365.897 318.786 366.987C322.065 372.711 327.531 376.527 334.09 377.345C334.91 377.345 335.73 377.345 336.276 377.345C342.289 377.345 347.754 374.619 351.58 370.258C355.953 370.258 360.326 368.895 363.878 366.169C364.698 365.624 365.245 364.806 365.518 363.988C366.065 363.988 366.611 363.988 367.158 363.988C375.63 362.353 381.642 354.721 381.369 345.998C382.462 343.817 383.282 341.636 383.555 339.183C383.828 337.002 383.828 334.822 383.282 332.914C388.748 328.825 392.574 322.828 393.394 315.741C393.94 311.652 393.394 307.563 391.754 303.747C391.207 302.929 390.387 302.111 389.841 301.566Z" fill="#002E57"/>
<path d="M308.675 342.726C302.389 345.725 294.464 345.725 288.451 342.454C284.625 340.546 288.178 334.821 291.731 336.73C296.65 339.455 304.302 338.91 308.675 335.094V320.102C304.029 321.737 299.656 324.463 294.19 326.916C285.992 330.46 276.153 329.37 268.501 325.281C259.483 320.374 248.551 299.658 237.346 305.655C236.253 308.381 235.707 311.652 235.98 314.923C236.8 322.01 241.172 327.462 247.185 330.187C246.091 332.641 245.272 335.367 245.818 338.365C246.091 340.546 246.911 342.726 248.004 344.635C248.004 344.907 248.004 344.907 248.004 345.18C247.458 351.449 251.831 357.174 257.843 358.264C257.843 354.448 258.663 350.904 260.849 347.906C256.203 343.272 255.93 335.639 258.389 329.37C259.756 326.099 264.675 328.007 263.309 331.278C261.122 336.184 261.122 342.454 266.315 345.452C267.681 346.27 267.955 348.723 266.588 349.814C263.035 352.54 262.762 357.446 263.035 361.808C266.042 363.988 269.594 365.079 273.694 364.806C273.967 364.806 274.513 364.806 274.787 364.533C277.52 369.44 283.259 372.438 289.271 371.893C294.19 371.348 298.29 368.35 300.476 364.261C293.644 362.353 288.998 356.901 284.898 350.904C282.439 347.36 288.178 344.089 290.637 347.633C294.19 352.812 298.016 357.719 304.029 358.264C305.942 357.174 307.581 355.538 308.675 353.63V342.726Z" fill="#42D0C7"/>
<path d="M308.674 296.932C306.488 297.477 304.302 297.75 301.842 297.75C298.29 297.477 298.836 292.298 302.116 292.298C304.302 292.298 306.488 292.025 308.401 291.207C308.401 291.207 308.401 291.207 308.674 291.207V245.958C304.029 243.232 298.29 241.869 292.277 242.414C286.811 242.96 281.892 245.14 278.066 248.411C282.712 253.045 285.992 260.405 286.811 265.857C287.631 269.946 281.072 271.854 280.526 267.492C279.706 262.041 275.607 253.045 270.141 250.592C268.228 250.319 266.588 250.047 264.675 250.047C254.017 250.592 245.545 257.952 243.359 268.038C247.185 275.943 250.737 284.12 259.756 286.574C273.694 290.662 283.805 273.762 297.196 281.667C300.749 283.848 297.47 289.299 293.917 287.391C286.538 283.302 276.7 292.298 269.048 293.661C263.309 294.751 257.57 293.388 252.377 290.935C246.638 288.209 243.085 282.485 240.352 276.76C237.346 280.577 235.706 285.483 236.253 290.662C236.526 293.388 237.62 296.114 238.986 298.567C248.824 296.659 257.843 306.472 265.222 314.105C274.513 323.373 285.718 325.008 297.47 318.466C301.569 316.285 305.395 314.377 309.221 313.56V296.932H308.674Z" fill="#42D0C7"/>
<path d="M238.439 298.295C237.073 296.114 235.979 293.388 235.706 290.39C235.16 285.211 236.799 280.304 239.806 276.488C242.812 282.212 246.091 287.937 251.83 290.662C252.923 291.208 253.743 291.48 254.836 292.025C253.47 295.024 252.65 298.295 251.83 302.111C247.731 299.385 243.085 297.477 238.439 298.295Z" fill="#44B2AB"/>
<path d="M280.526 267.765C271.507 271.309 263.309 277.033 257.843 286.301C249.918 283.302 246.365 275.67 243.085 268.31C245.272 258.497 254.017 250.865 264.402 250.319C266.315 250.319 268.228 250.319 269.868 250.865C275.88 253.318 279.706 262.313 280.526 267.765Z" fill="#44B2AB"/>
<path d="M308.674 245.958C304.028 243.232 298.289 241.869 292.277 242.414C286.811 242.96 281.892 245.14 278.066 248.411C282.712 253.045 285.718 260.133 286.811 265.584C294.19 263.676 301.842 262.858 308.401 262.858V245.958H308.674Z" fill="#44B2AB"/>
<path d="M247.731 345.453C247.731 345.18 247.731 345.18 247.731 344.908C246.638 343 245.818 341.091 245.545 338.638C245.272 335.64 245.818 332.914 246.911 330.461C240.899 327.735 236.526 322.283 235.707 315.196C235.433 311.925 235.707 308.654 237.073 305.928C241.992 303.202 246.638 305.655 251.011 309.199C249.918 321.465 251.831 336.73 257.843 355.811C257.843 356.629 257.57 357.447 257.57 358.537C251.557 357.174 247.185 351.722 247.731 345.453Z" fill="#44B2AB"/>
<path d="M314.96 342.726C321.245 345.725 329.171 345.725 335.183 342.454C339.009 340.546 335.456 334.821 331.903 336.729C326.984 339.455 319.332 338.91 314.96 335.094V320.102C319.605 321.737 323.978 324.463 329.444 326.916C337.643 330.46 347.481 329.37 355.133 325.281C364.151 320.374 375.083 299.658 386.288 305.654C387.381 308.38 387.928 311.651 387.654 314.922C386.834 322.01 382.462 327.461 376.449 330.187C377.543 332.641 378.362 335.366 377.816 338.365C377.543 340.546 376.723 342.726 375.63 344.634C375.63 344.907 375.63 344.907 375.63 345.18C376.176 351.449 371.804 357.173 365.791 358.264C365.791 354.448 364.971 350.904 362.785 347.905C367.431 343.271 367.704 335.639 365.245 329.37C363.878 326.098 358.959 328.007 360.325 331.278C362.512 336.184 362.512 342.454 357.319 345.452C355.953 346.27 355.68 348.723 357.046 349.814C360.599 352.267 360.872 357.173 360.325 361.535C357.319 363.715 353.767 364.806 349.667 364.533C349.394 364.533 348.847 364.533 348.574 364.261C345.841 369.167 340.102 372.166 334.09 371.621C329.171 371.075 325.071 368.077 322.885 363.988C329.717 362.08 334.363 356.628 338.462 350.631C340.922 347.088 335.183 343.817 332.723 347.36C329.171 352.539 325.345 357.446 319.332 357.991C317.419 356.901 315.779 355.265 314.686 353.357V342.726H314.96Z" fill="#42D0C7"/>
<path d="M314.959 296.932C317.146 297.477 319.332 297.75 321.792 297.75C325.344 297.477 324.798 292.298 321.518 292.298C319.332 292.298 317.146 292.025 315.233 291.207C315.233 291.207 315.233 291.207 314.959 291.207V245.958C319.605 243.232 325.344 241.869 331.357 242.414C336.822 242.96 341.742 245.14 345.568 248.411C340.922 253.045 337.642 260.405 336.822 265.857C336.003 269.946 342.562 271.854 343.108 267.492C343.928 262.041 348.027 253.045 353.493 250.592C355.406 250.319 357.046 250.047 358.959 250.047C369.617 250.592 378.089 257.952 380.275 268.038C376.449 275.943 372.897 284.12 363.878 286.574C349.94 290.662 339.829 273.762 326.438 281.667C322.885 283.848 326.164 289.299 329.717 287.391C337.096 283.302 346.934 292.298 354.586 293.661C360.325 294.751 366.064 293.388 371.257 290.935C376.996 288.209 380.549 282.485 383.281 276.76C386.288 280.577 387.927 285.483 387.381 290.662C387.108 293.388 386.014 296.114 384.648 298.567C374.81 296.659 365.791 306.472 358.412 314.105C349.12 323.373 337.916 325.008 326.164 318.466C322.065 316.285 318.239 314.377 314.413 313.56V296.932H314.959Z" fill="#42D0C7"/>
<path d="M385.195 298.295C386.562 296.114 387.655 293.388 387.928 290.39C388.475 285.211 386.835 280.304 383.829 276.488C380.823 282.212 377.543 287.937 371.804 290.663C370.711 291.208 369.891 291.48 368.798 292.025C370.165 295.024 370.984 298.295 371.804 302.111C375.904 299.385 380.549 297.477 385.195 298.295Z" fill="#44B2AB"/>
<path d="M343.108 267.765C352.127 271.309 360.325 277.033 365.791 286.301C373.716 283.302 377.269 275.67 380.549 268.31C378.362 258.497 369.617 250.865 359.232 250.319C357.319 250.319 355.406 250.319 353.766 250.865C348.027 253.318 343.928 262.313 343.108 267.765Z" fill="#44B2AB"/>
<path d="M314.96 245.958C319.606 243.232 325.345 241.869 331.357 242.414C336.823 242.96 341.742 245.14 345.568 248.411C340.922 253.045 337.916 260.133 336.823 265.584C329.444 263.676 321.792 262.858 315.233 262.858V245.958H314.96Z" fill="#44B2AB"/>
<path d="M375.902 345.453C375.902 345.18 375.902 345.18 375.902 344.908C376.996 342.999 377.815 341.091 378.089 338.638C378.362 335.64 377.815 332.914 376.722 330.46C382.735 327.735 387.107 322.283 387.927 315.196C388.2 311.925 387.927 308.653 386.561 305.928C381.641 303.202 376.996 305.655 372.623 309.199C373.716 321.465 371.803 336.73 365.791 355.811C365.791 356.629 366.064 357.447 366.064 358.537C372.076 357.174 376.449 351.722 375.902 345.453Z" fill="#44B2AB"/>
<path d="M394 219.968C394 218.327 395.327 217 396.968 217H405.033C406.673 217 408 218.327 408 219.968V228.032C408 229.673 406.673 231 405.033 231H396.968C395.327 231 394 229.673 394 228.032V219.968Z" fill="#44B2AB"/>
<path d="M414 241.968C414 240.327 415.327 239 416.968 239H425.033C426.673 239 428 240.327 428 241.968V250.032C428 251.673 426.673 253 425.033 253H416.968C415.327 253 414 251.673 414 250.032V241.968Z" fill="#44B2AB"/>
<path d="M305 202.968C305 201.327 306.327 200 307.968 200H316.033C317.673 200 319 201.327 319 202.968V211.032C319 212.673 317.673 214 316.033 214H307.968C306.327 214 305 212.673 305 211.032V202.968Z" fill="#44B2AB"/>
<path d="M220 219.968C220 218.327 221.326 217 222.967 217H231.032C232.673 217 234 218.327 234 219.968V228.032C234 229.673 232.673 231 231.032 231H222.967C221.326 231 220 229.673 220 228.032V219.968Z" fill="#44B2AB"/>
<path d="M199 242.968C199 241.327 200.326 240 201.967 240H210.032C211.673 240 213 241.327 213 242.968V251.032C213 252.673 211.673 254 210.032 254H201.967C200.326 254 199 252.673 199 251.032V242.968Z" fill="#44B2AB"/>
<path d="M203 357.968C203 356.327 204.326 355 205.967 355H214.032C215.673 355 217 356.327 217 357.968V366.032C217 367.673 215.673 369 214.032 369H205.967C204.326 369 203 367.673 203 366.032V357.968Z" fill="#44B2AB"/>
<path d="M197 384.968C197 383.327 198.326 382 199.967 382H208.032C209.673 382 211 383.327 211 384.968V393.032C211 394.673 209.673 396 208.032 396H199.967C198.326 396 197 394.673 197 393.032V384.968Z" fill="#44B2AB"/>
<path d="M407 356.968C407 355.327 408.327 354 409.968 354H418.033C419.673 354 421 355.327 421 356.968V365.032C421 366.673 419.673 368 418.033 368H409.968C408.327 368 407 366.673 407 365.032V356.968Z" fill="#44B2AB"/>
<path d="M413 384.968C413 383.327 414.327 382 415.968 382H424.033C425.673 382 427 383.327 427 384.968V393.032C427 394.673 425.673 396 424.033 396H415.968C414.327 396 413 394.673 413 393.032V384.968Z" fill="#44B2AB"/>
<path d="M305 398.968C305 397.327 306.327 396 307.968 396H316.033C317.673 396 319 397.327 319 398.968V407.032C319 408.673 317.673 410 316.033 410H307.968C306.327 410 305 408.673 305 407.032V398.968Z" fill="#44B2AB"/>
<g filter="url(#filter1_d)">
<path d="M650 275H467C464.238 275 462 277.239 462 280V424C462 426.762 464.238 429 467 429H650C652.761 429 655 426.762 655 424V280C655 277.239 652.761 275 650 275Z" fill="white"/>
</g>
<path d="M650.488 275H467C464.238 275 462 277.239 462 280V299.26H655.488V280C655.488 277.239 653.249 275 650.488 275Z" fill="#002E57"/>
<path d="M552.644 316.161H476.298C475.193 316.161 474.298 317.057 474.298 318.161V319.613C474.298 320.717 475.193 321.613 476.298 321.613H552.644C553.749 321.613 554.644 320.717 554.644 319.613V318.161C554.644 317.057 553.749 316.161 552.644 316.161Z" fill="#44B2AB"/>
<path d="M502.633 328.7H476.298C475.193 328.7 474.298 329.596 474.298 330.7V332.152C474.298 333.256 475.193 334.152 476.298 334.152H502.633C503.737 334.152 504.633 333.256 504.633 332.152V330.7C504.633 329.596 503.737 328.7 502.633 328.7Z" fill="#002E57"/>
<path d="M557.563 328.7H514.011C512.906 328.7 512.011 329.595 512.011 330.7V332.152C512.011 333.256 512.906 334.152 514.011 334.152H557.563C558.668 334.152 559.563 333.256 559.563 332.152V330.7C559.563 329.595 558.668 328.7 557.563 328.7Z" fill="#EAEAEA"/>
<path d="M575.054 340.967H533.962C532.857 340.967 531.962 341.862 531.962 342.967V344.418C531.962 345.523 532.857 346.418 533.962 346.418H575.054C576.159 346.418 577.054 345.523 577.054 344.418V342.967C577.054 341.862 576.159 340.967 575.054 340.967Z" fill="#EAEAEA"/>
<path d="M587.352 328.7H569.216C568.111 328.7 567.216 329.596 567.216 330.7V332.152C567.216 333.256 568.111 334.152 569.216 334.152H587.352C588.457 334.152 589.352 333.256 589.352 332.152V330.7C589.352 329.596 588.457 328.7 587.352 328.7Z" fill="#EAEAEA"/>
<path d="M624.793 328.7H598.458C597.353 328.7 596.458 329.596 596.458 330.7V332.152C596.458 333.256 597.353 334.152 598.458 334.152H624.793C625.897 334.152 626.793 333.256 626.793 332.152V330.7C626.793 329.596 625.897 328.7 624.793 328.7Z" fill="#EAEAEA"/>
<path d="M524.222 340.967H476.298C475.193 340.967 474.298 341.862 474.298 342.967V344.418C474.298 345.523 475.193 346.418 476.298 346.418H524.222C525.327 346.418 526.222 345.523 526.222 344.418V342.967C526.222 341.862 525.327 340.967 524.222 340.967Z" fill="#002E57"/>
<path d="M518.757 361.955H492.422C491.317 361.955 490.422 362.85 490.422 363.955V365.407C490.422 366.511 491.317 367.407 492.422 367.407H518.757C519.861 367.407 520.757 366.511 520.757 365.407V363.955C520.757 362.85 519.861 361.955 518.757 361.955Z" fill="white"/>
<path d="M554.83 361.955H530.135C529.03 361.955 528.135 362.85 528.135 363.955V365.407C528.135 366.511 529.03 367.407 530.135 367.407H554.83C555.935 367.407 556.83 366.511 556.83 365.407V363.955C556.83 362.85 555.935 361.955 554.83 361.955Z" fill="#44B2AB"/>
<path d="M571.228 374.494H549.812C548.708 374.494 547.812 375.389 547.812 376.494V377.946C547.812 379.05 548.708 379.946 549.812 379.946H571.228C572.333 379.946 573.228 379.05 573.228 377.946V376.494C573.228 375.389 572.333 374.494 571.228 374.494Z" fill="#EAEAEA"/>
<path d="M620.146 374.494H582.06C580.955 374.494 580.06 375.389 580.06 376.494V377.946C580.06 379.05 580.955 379.946 582.06 379.946H620.146C621.251 379.946 622.146 379.05 622.146 377.946V376.494C622.146 375.389 621.251 374.494 620.146 374.494Z" fill="#EAEAEA"/>
<path d="M603.476 361.955H564.296C563.192 361.955 562.296 362.85 562.296 363.955V365.407C562.296 366.511 563.192 367.407 564.296 367.407H603.476C604.58 367.407 605.476 366.511 605.476 365.407V363.955C605.476 362.85 604.58 361.955 603.476 361.955Z" fill="#EAEAEA"/>
<path d="M518.757 386.488H492.422C491.317 386.488 490.422 387.383 490.422 388.488V389.939C490.422 391.044 491.317 391.939 492.422 391.939H518.757C519.861 391.939 520.757 391.044 520.757 389.939V388.488C520.757 387.383 519.861 386.488 518.757 386.488Z" fill="#002E57"/>
<path d="M554.83 386.488H530.135C529.03 386.488 528.135 387.383 528.135 388.488V389.939C528.135 391.044 529.03 391.939 530.135 391.939H554.83C555.935 391.939 556.83 391.044 556.83 389.939V388.488C556.83 387.383 555.935 386.488 554.83 386.488Z" fill="#EAEAEA"/>
<path d="M603.476 386.488H564.296C563.192 386.488 562.296 387.383 562.296 388.488V389.94C562.296 391.044 563.192 391.94 564.296 391.94H603.476C604.58 391.94 605.476 391.044 605.476 389.94V388.488C605.476 387.383 604.58 386.488 603.476 386.488Z" fill="#EAEAEA"/>
<path d="M640.643 361.955H614.308C613.204 361.955 612.308 362.85 612.308 363.955V365.407C612.308 366.511 613.204 367.407 614.308 367.407H640.643C641.748 367.407 642.643 366.511 642.643 365.407V363.955C642.643 362.85 641.748 361.955 640.643 361.955Z" fill="#EAEAEA"/>
<path d="M540.346 374.494H492.422C491.317 374.494 490.422 375.389 490.422 376.494V377.946C490.422 379.05 491.317 379.946 492.422 379.946H540.346C541.451 379.946 542.346 379.05 542.346 377.946V376.494C542.346 375.389 541.451 374.494 540.346 374.494Z" fill="#002E57"/>
<path d="M590.632 404.479H569.216C568.111 404.479 567.216 405.374 567.216 406.479V407.93C567.216 409.035 568.111 409.93 569.216 409.93H590.632C591.736 409.93 592.632 409.035 592.632 407.93V406.479C592.632 405.374 591.736 404.479 590.632 404.479Z" fill="#EAEAEA"/>
<path d="M559.477 404.479H511.552C510.447 404.479 509.552 405.374 509.552 406.479V407.93C509.552 409.035 510.447 409.93 511.552 409.93H559.477C560.581 409.93 561.477 409.035 561.477 407.93V406.479C561.477 405.374 560.581 404.479 559.477 404.479Z" fill="#44B2AB"/>
<path d="M482.223 287.267C482.223 289.447 480.583 291.083 478.397 291.083C476.211 291.083 474.571 289.447 474.571 287.267C474.571 285.086 476.211 283.45 478.397 283.45C480.583 283.45 482.223 285.086 482.223 287.267Z" fill="#349D96"/>
<path d="M497.801 287.266C497.801 289.447 496.162 291.082 493.975 291.082C491.789 291.082 490.149 289.447 490.149 287.266C490.149 285.086 491.789 283.45 493.975 283.45C495.888 283.177 497.801 285.086 497.801 287.266Z" fill="#349D96"/>
<path d="M513.378 287.266C513.378 289.447 511.738 291.082 509.552 291.082C507.366 291.082 505.726 289.447 505.726 287.266C505.726 285.085 507.366 283.45 509.552 283.45C511.465 283.177 513.378 285.085 513.378 287.266Z" fill="#349D96"/>
<g filter="url(#filter2_d)">
<path d="M138.364 254.051H15.3644C12.603 254.051 10.3644 256.29 10.3644 259.051V322.051C10.3644 324.813 12.603 327.051 15.3644 327.051H138.364C141.126 327.051 143.364 324.813 143.364 322.051V259.051C143.364 256.29 141.126 254.051 138.364 254.051Z" fill="white"/>
</g>
<path d="M50.3597 278.978H23.4781C22.3735 278.978 21.4781 279.874 21.4781 280.978V282.43C21.4781 283.535 22.3735 284.43 23.4781 284.43H50.3597C51.4643 284.43 52.3597 283.535 52.3597 282.43V280.978C52.3597 279.874 51.4643 278.978 50.3597 278.978Z" fill="#002E57"/>
<path d="M92.446 278.978H61.7383C60.6338 278.978 59.7383 279.874 59.7383 280.978V282.43C59.7383 283.534 60.6338 284.43 61.7383 284.43H92.446C93.5506 284.43 94.446 283.534 94.446 282.43V280.978C94.446 279.874 93.5506 278.978 92.446 278.978Z" fill="#EAEAEA"/>
<path d="M107.204 291.518H61.7383C60.6338 291.518 59.7383 292.413 59.7383 293.518V294.969C59.7383 296.074 60.6338 296.969 61.7383 296.969H107.204C108.308 296.969 109.204 296.074 109.204 294.969V293.518C109.204 292.413 108.308 291.518 107.204 291.518Z" fill="#EAEAEA"/>
<path d="M117.862 278.978H104.098C102.994 278.978 102.098 279.874 102.098 280.978V282.43C102.098 283.535 102.994 284.43 104.098 284.43H117.862C118.967 284.43 119.862 283.535 119.862 282.43V280.978C119.862 279.874 118.967 278.978 117.862 278.978Z" fill="#44B2AB"/>
<path d="M50.3597 303.512H23.4781C22.3735 303.512 21.4781 304.407 21.4781 305.512V306.963C21.4781 308.068 22.3735 308.963 23.4781 308.963H50.3597C51.4643 308.963 52.3597 308.068 52.3597 306.963V305.512C52.3597 304.407 51.4643 303.512 50.3597 303.512Z" fill="#EAEAEA"/>
<path d="M86.7069 303.511H61.7383C60.6338 303.511 59.7383 304.407 59.7383 305.511V306.963C59.7383 308.068 60.6338 308.963 61.7383 308.963H86.7069C87.8115 308.963 88.7069 308.068 88.7069 306.963V305.511C88.7069 304.407 87.8115 303.511 86.7069 303.511Z" fill="#44B2AB"/>
<path d="M128.794 303.511H96.4464C95.3418 303.511 94.4464 304.407 94.4464 305.511V306.963C94.4464 308.068 95.3418 308.963 96.4464 308.963H128.794C129.898 308.963 130.794 308.068 130.794 306.963V305.511C130.794 304.407 129.898 303.511 128.794 303.511Z" fill="#EAEAEA"/>
<path d="M50.3597 291.518H23.4781C22.3735 291.518 21.4781 292.413 21.4781 293.518V294.97C21.4781 296.074 22.3735 296.97 23.4781 296.97H50.3597C51.4643 296.97 52.3597 296.074 52.3597 294.97V293.518C52.3597 292.413 51.4643 291.518 50.3597 291.518Z" fill="#002E57"/>
<path d="M138.364 237H14.9997C12.2383 237 9.99969 239.238 9.99969 242V261.26H143.364V242C143.364 239.238 141.126 237 138.364 237Z" fill="#002E57"/>
<path d="M29.1302 249.266C29.1302 251.447 27.4905 253.083 25.3041 253.083C23.1178 253.083 21.4781 251.447 21.4781 249.266C21.4781 247.086 23.1178 245.45 25.3041 245.45C27.4905 245.45 29.1302 247.086 29.1302 249.266Z" fill="#44B2AB"/>
<path d="M44.708 249.266C44.708 251.447 43.0682 253.083 40.8819 253.083C38.6956 253.083 37.0558 251.447 37.0558 249.266C37.0558 247.086 38.6956 245.45 40.8819 245.45C43.0682 245.45 44.708 247.086 44.708 249.266Z" fill="#44B2AB"/>
<path d="M60.2849 249.266C60.2849 251.447 58.6451 253.083 56.4588 253.083C54.2725 253.083 52.6328 251.447 52.6328 249.266C52.6328 247.086 54.2725 245.45 56.4588 245.45C58.3718 245.45 60.2849 247.086 60.2849 249.266Z" fill="#44B2AB"/>
<defs>
<filter id="filter0_d" x="77.9689" y="149" width="467.97" height="318.311" filterUnits="userSpaceOnUse" color-interpolation-filters="sRGB">
<feFlood flood-opacity="0" result="BackgroundImageFix"/>
<feColorMatrix in="SourceAlpha" type="matrix" values="0 0 0 0 0 0 0 0 0 0 0 0 0 0 0 0 0 0 127 0"/>
<feOffset dy="4"/>
<feGaussianBlur stdDeviation="10"/>
<feColorMatrix type="matrix" values="0 0 0 0 0.0365407 0 0 0 0 0.274495 0 0 0 0 0.259353 0 0 0 0.57 0"/>
<feBlend mode="normal" in2="BackgroundImageFix" result="effect1_dropShadow"/>
<feBlend mode="normal" in="SourceGraphic" in2="effect1_dropShadow" result="shape"/>
</filter>
<filter id="filter1_d" x="452" y="269" width="213" height="174" filterUnits="userSpaceOnUse" color-interpolation-filters="sRGB">
<feFlood flood-opacity="0" result="BackgroundImageFix"/>
<feColorMatrix in="SourceAlpha" type="matrix" values="0 0 0 0 0 0 0 0 0 0 0 0 0 0 0 0 0 0 127 0"/>
<feOffset dy="4"/>
<feGaussianBlur stdDeviation="5"/>
<feColorMatrix type="matrix" values="0 0 0 0 0 0 0 0 0 0 0 0 0 0 0 0 0 0 0.11 0"/>
<feBlend mode="normal" in2="BackgroundImageFix" result="effect1_dropShadow"/>
<feBlend mode="normal" in="SourceGraphic" in2="effect1_dropShadow" result="shape"/>
</filter>
<filter id="filter2_d" x="0.364441" y="248.051" width="153" height="93" filterUnits="userSpaceOnUse" color-interpolation-filters="sRGB">
<feFlood flood-opacity="0" result="BackgroundImageFix"/>
<feColorMatrix in="SourceAlpha" type="matrix" values="0 0 0 0 0 0 0 0 0 0 0 0 0 0 0 0 0 0 127 0"/>
<feOffset dy="4"/>
<feGaussianBlur stdDeviation="5"/>
<feColorMatrix type="matrix" values="0 0 0 0 0 0 0 0 0 0 0 0 0 0 0 0 0 0 0.11 0"/>
<feBlend mode="normal" in2="BackgroundImageFix" result="effect1_dropShadow"/>
<feBlend mode="normal" in="SourceGraphic" in2="effect1_dropShadow" result="shape"/>
</filter>
<radialGradient id="paint0_radial" cx="0" cy="0" r="1" gradientUnits="userSpaceOnUse" gradientTransform="translate(311.68 304.155) rotate(90) scale(115.845 194.434)">
<stop stop-color="#094642"/>
<stop offset="1" stop-color="#000404"/>
</radialGradient>
</defs>
</svg>
