<svg width="400" height="400" viewBox="0 0 608 604" fill="none" xmlns="http://www.w3.org/2000/svg">
<path d="M539.865 365.934C575.254 330.545 575.254 273.321 539.865 237.932L365.934 64.0008C330.545 28.6121 273.321 28.6121 237.932 64.0007L64.0007 237.932C28.6121 273.321 28.6121 330.545 64.0008 365.934L237.932 539.865C273.321 575.254 330.545 575.254 365.934 539.865L539.865 365.934Z" fill="#44B2AB"/>
<path d="M166 104H87C84.2386 104 82 106.239 82 109V154C82 156.761 84.2386 159 87 159H166C168.761 159 171 156.761 171 154V109C171 106.239 168.761 104 166 104Z" fill="#EAEAEA"/>
<path d="M154 130H99C97.8954 130 97 130.895 97 132C97 133.105 97.8954 134 99 134H154C155.105 134 156 133.105 156 132C156 130.895 155.105 130 154 130Z" fill="#002E57"/>
<path d="M154 120H110C108.895 120 108 120.895 108 122C108 123.105 108.895 124 110 124H154C155.105 124 156 123.105 156 122C156 120.895 155.105 120 154 120Z" fill="#002E57"/>
<path d="M154 141H99C97.8954 141 97 141.895 97 143C97 144.105 97.8954 145 99 145H154C155.105 145 156 144.105 156 143C156 141.895 155.105 141 154 141Z" fill="#002E57"/>
<g filter="url(#filter0_d)">
<path d="M135 172H24C21.2386 172 19 174.239 19 177V238C19 240.761 21.2407 243 24.0021 243H80.9289C82.255 243 83.5268 243.527 84.4645 244.464L90.1215 250.122C92.0117 252.012 95.0543 252.081 97.0284 250.278L103.568 244.308C104.489 243.466 105.685 243 106.933 243H135.002C137.764 243 140 240.761 140 238V177C140 174.239 137.761 172 135 172Z" fill="#002E57"/>
</g>
<path d="M88 185H33C31.8954 185 31 185.895 31 187V189C31 190.105 31.8954 191 33 191H88C89.1046 191 90 190.105 90 189V187C90 185.895 89.1046 185 88 185Z" fill="#44B2AB"/>
<path d="M128 185H99C97.8954 185 97 185.895 97 187V227C97 228.105 97.8954 229 99 229H128C129.105 229 130 228.105 130 227V187C130 185.895 129.105 185 128 185Z" fill="white"/>
<path d="M88 197H33C31.8954 197 31 197.895 31 199V201C31 202.105 31.8954 203 33 203H88C89.1046 203 90 202.105 90 201V199C90 197.895 89.1046 197 88 197Z" fill="#44B2AB"/>
<path d="M88 209H33C31.8954 209 31 209.895 31 211V213C31 214.105 31.8954 215 33 215H88C89.1046 215 90 214.105 90 213V211C90 209.895 89.1046 209 88 209Z" fill="#44B2AB"/>
<path d="M88 221H33C31.8954 221 31 221.895 31 223V225C31 226.105 31.8954 227 33 227H88C89.1046 227 90 226.105 90 225V223C90 221.895 89.1046 221 88 221Z" fill="#44B2AB"/>
<g filter="url(#filter1_d)">
<path d="M408 167H194C191.239 167 189 169.238 189 172V458C189 460.761 191.239 463 194 463H408C410.761 463 413 460.761 413 458V172C413 169.238 410.761 167 408 167Z" fill="url(#paint0_radial)"/>
</g>
<path d="M408 148H194C191.239 148 189 150.238 189 153V172H413V153C413 150.238 410.761 148 408 148Z" fill="#002E57"/>
<path d="M209.223 160.266C209.223 162.446 207.584 164.082 205.397 164.082C203.211 164.082 201.571 162.446 201.571 160.266C201.571 158.085 203.211 156.449 205.397 156.449C207.584 156.449 209.223 158.085 209.223 160.266Z" fill="#349D96"/>
<path d="M224.801 160.266C224.801 162.446 223.162 164.082 220.975 164.082C218.789 164.082 217.149 162.446 217.149 160.266C217.149 158.085 218.789 156.449 220.975 156.449C222.888 156.177 224.801 158.085 224.801 160.266Z" fill="#349D96"/>
<path d="M240.378 160.266C240.378 162.446 238.738 164.082 236.552 164.082C234.366 164.082 232.726 162.446 232.726 160.266C232.726 158.085 234.366 156.449 236.552 156.449C238.465 156.177 240.378 158.085 240.378 160.266Z" fill="#349D96"/>
<path d="M355.832 324.304C358.856 324.304 358.856 320.919 355.832 320.919C318.492 320.919 281.193 320.919 243.853 320.919C240.829 320.919 240.829 324.304 243.853 324.304H355.832Z" fill="#44B2AB"/>
<path d="M295.387 187.868C277.442 187.868 261.394 195.806 250.506 208.337L295.387 247.181L340.267 208.337C329.379 195.806 313.331 187.868 295.387 187.868Z" fill="#002E57"/>
<path d="M358.453 238.518L299.661 246.98V306.293C332.484 306.293 359.058 279.739 359.058 246.939C359.058 244.078 358.816 241.258 358.453 238.518Z" fill="#EAEAEA"/>
<path d="M250.547 208.54C229.377 233.603 232.562 271.037 257.684 292.151C259.861 294.005 262.16 295.657 264.539 297.148L295.951 246.78L250.547 208.54Z" fill="#349D96"/>
<path d="M295.87 306.213C284.741 306.213 273.571 303.11 263.773 296.784L295.87 246.859V306.213Z" fill="#42D0C7"/>
<path d="M361.437 235.214C359.784 223.649 354.824 213.213 347.525 204.791L302.645 243.635L361.437 235.214Z" fill="#50ECE2"/>
<path d="M237 391H215V445H237V391Z" fill="#002E57"/>
<path d="M232 369H220C217.239 369 215 371.239 215 374V393H237V374C237 371.239 234.762 369 232 369Z" fill="#42D0C7"/>
<path d="M380 390.999H359V444.999H380V390.999Z" fill="#002E57"/>
<path d="M375 346.999H364C361.239 346.999 359 349.237 359 351.999V395.999H380V351.999C380 349.237 377.761 346.999 375 346.999Z" fill="#42D0C7"/>
<path d="M333 389H311V445H333V389Z" fill="#002E57"/>
<path d="M328 382H316C313.239 382 311 384.239 311 387V419H333V387C333 384.239 330.761 382 328 382Z" fill="#42D0C7"/>
<path d="M285 368.998H263V444.998H285V368.998Z" fill="#002E57"/>
<path d="M280 338.998H268C265.239 338.998 263 341.237 263 343.998V398.998H285V343.998C285 341.237 282.761 338.998 280 338.998Z" fill="#42D0C7"/>
<g filter="url(#filter2_d)">
<path d="M196 276.999H59C56.2386 276.999 54 279.238 54 281.999V486.999C54 489.761 56.2386 491.999 59 491.999H196C198.761 491.999 201 489.761 201 486.999V281.999C201 279.238 198.761 276.999 196 276.999Z" fill="white"/>
</g>
<path d="M196 257.999H59C56.2386 257.999 54 260.238 54 262.999V281.999H201V262.999C201 260.238 198.761 257.999 196 257.999Z" fill="#002E57"/>
<path d="M74.2234 270.266C74.2234 272.447 72.5836 274.082 70.3973 274.082C68.211 274.082 66.5713 272.447 66.5713 270.266C66.5713 268.085 68.211 266.45 70.3973 266.45C72.5836 266.45 74.2234 268.085 74.2234 270.266Z" fill="#349D96"/>
<path d="M89.8012 270.266C89.8012 272.446 88.1615 274.082 85.9752 274.082C83.7889 274.082 82.1492 272.446 82.1492 270.266C82.1492 268.085 83.7889 266.449 85.9752 266.449C87.8882 266.177 89.8012 268.085 89.8012 270.266Z" fill="#349D96"/>
<path d="M105.378 270.265C105.378 272.446 103.738 274.081 101.552 274.081C99.3658 274.081 97.7261 272.446 97.7261 270.265C97.7261 268.084 99.3658 266.449 101.552 266.449C103.465 266.176 105.378 268.084 105.378 270.265Z" fill="#349D96"/>
<path d="M195.207 285.925H63.4365C62.332 285.925 61.4365 286.82 61.4365 287.925V369.712C61.4365 370.817 62.332 371.712 63.4365 371.712H195.207C196.311 371.712 197.207 370.817 197.207 369.712V287.925C197.207 286.82 196.311 285.925 195.207 285.925Z" fill="#EAEAEA"/>
<path d="M147.447 315.702C148.012 316.831 148.979 317.798 150.834 318.483C154.262 319.772 158.899 318.845 160.875 315.944C164.181 311.149 163.254 304.259 166.803 299.262C168.254 297.247 170.472 295.595 173.053 294.83C175.633 294.104 178.658 294.306 180.956 295.595C184.706 297.65 186.037 301.962 186.077 305.83C186.158 313.285 185.109 321.021 183.738 328.395C183.093 331.981 182.085 335.648 179.504 338.469C175.996 342.297 170.23 343.868 164.706 344.755C150.713 346.89 136.358 345.601 122.245 344.271C110.873 343.224 99.5425 342.136 88.1712 341.088C84.9856 340.806 75.5499 341.29 73.6143 339.073C71.7595 336.897 73.2111 329.564 74.2999 327.307C76.7193 322.27 83.413 319.41 89.6632 319.732C103.777 320.457 98.2118 305.709 102.728 298.738C105.148 295.031 110.43 292.372 114.987 293.903C119.341 295.394 121.156 299.746 123.293 303.332C124.422 305.226 125.995 307.16 128.374 307.563C132.406 308.248 135.794 304.138 139.907 304.299C142.326 304.38 144.423 306.032 145.471 307.966C146.842 310.585 146.358 313.446 147.447 315.702Z" fill="#44B2AB"/>
<path d="M188.335 367.077C188.335 367.077 188.376 360.912 188.376 360.55C188.416 351.322 188.416 342.135 188.416 332.907C188.416 324.083 189.142 315.299 189.021 306.514C188.94 302.445 187.206 300.309 182.932 301.437C178.698 302.525 174.867 305.023 172.206 308.448C170.391 310.786 168.899 313.727 166.117 314.654C161.117 316.346 157.044 310.705 152.568 307.965C147.729 304.983 140.995 305.507 136.681 309.133C131.439 313.566 130.229 321.222 125.793 326.46C120.914 332.222 112.043 334.157 105.188 330.973C102.365 329.684 99.9458 327.629 97.2038 326.259C86.1954 320.738 70.9127 328.676 69.0981 340.845V367.077C73 367.077 188.577 367.279 188.335 367.077Z" fill="#002E57"/>
<path d="M71.8562 384.808H65.6543C64.5497 384.808 63.6543 385.703 63.6543 386.808V393.002C63.6543 394.107 64.5497 395.002 65.6543 395.002H71.8562C72.9608 395.002 73.8562 394.107 73.8562 393.002V386.808C73.8562 385.703 72.9608 384.808 71.8562 384.808Z" fill="#002E57"/>
<path d="M71.8562 399.878H65.6543C64.5497 399.878 63.6543 400.773 63.6543 401.878V408.073C63.6543 409.177 64.5497 410.073 65.6543 410.073H71.8562C72.9608 410.073 73.8562 409.177 73.8562 408.073V401.878C73.8562 400.773 72.9608 399.878 71.8562 399.878Z" fill="#44B2AB"/>
<path d="M110.491 387.91H83.8756C83.0188 387.91 82.3242 388.605 82.3242 389.462C82.3242 390.318 83.0188 391.013 83.8756 391.013H110.491C111.348 391.013 112.043 390.318 112.043 389.462C112.043 388.605 111.348 387.91 110.491 387.91Z" fill="#EAEAEA"/>
<path d="M110.048 404.311H83.4322C82.5754 404.311 81.8809 405.005 81.8809 405.862C81.8809 406.719 82.5754 407.413 83.4322 407.413H110.048C110.905 407.413 111.599 406.719 111.599 405.862C111.599 405.005 110.905 404.311 110.048 404.311Z" fill="#EAEAEA"/>
<path d="M192.873 420.999H66.6576C65.734 420.999 64.9854 421.748 64.9854 422.671C64.9854 423.595 65.734 424.344 66.6576 424.344H192.873C193.797 424.344 194.546 423.595 194.546 422.671C194.546 421.748 193.797 420.999 192.873 420.999Z" fill="#EAEAEA"/>
<path d="M120.648 430.75H66.9854C65.8808 430.75 64.9854 431.646 64.9854 432.75V474.686C64.9854 475.791 65.8808 476.686 66.9854 476.686H120.648C121.753 476.686 122.648 475.791 122.648 474.686V432.75C122.648 431.646 121.753 430.75 120.648 430.75Z" fill="#EAEAEA"/>
<path d="M192.545 431.193H133.56C132.455 431.193 131.56 432.089 131.56 433.193V449.22C131.56 450.325 132.455 451.22 133.56 451.22H192.545C193.65 451.22 194.545 450.325 194.545 449.22V433.193C194.545 432.089 193.65 431.193 192.545 431.193Z" fill="#44B2AB"/>
<path d="M191.9 456.458H132.915C131.81 456.458 130.915 457.353 130.915 458.458V474.484C130.915 475.589 131.81 476.484 132.915 476.484H191.9C193.005 476.484 193.9 475.589 193.9 474.484V458.458C193.9 457.353 193.005 456.458 191.9 456.458Z" fill="#EAEAEA"/>
<path d="M369.784 260.841C369.502 260.841 369.219 260.64 369.179 260.318C369.058 259.512 368.978 258.665 368.978 257.86C368.978 257.537 369.219 257.255 369.542 257.215C369.865 257.215 370.147 257.457 370.187 257.779C370.228 258.545 370.308 259.35 370.389 260.116C370.429 260.438 370.187 260.761 369.865 260.801C369.824 260.841 369.824 260.841 369.784 260.841Z" fill="#EAEAEA"/>
<path d="M369.609 254.474C369.569 254.474 369.528 254.474 369.528 254.474C369.206 254.434 368.964 254.112 369.004 253.789C369.246 252.218 369.649 250.606 370.174 248.994C370.295 248.672 370.617 248.511 370.94 248.632C371.262 248.753 371.424 249.075 371.303 249.397C370.778 250.928 370.416 252.46 370.174 253.951C370.174 254.273 369.932 254.474 369.609 254.474ZM372.633 245.368C372.553 245.368 372.432 245.328 372.351 245.287C372.069 245.126 371.948 244.763 372.109 244.481C372.835 243.071 373.682 241.661 374.65 240.291C374.851 240.009 375.214 239.928 375.496 240.13C375.779 240.331 375.859 240.694 375.658 240.976C374.73 242.305 373.924 243.675 373.198 245.045C373.077 245.247 372.875 245.368 372.633 245.368ZM378.117 237.47C377.996 237.47 377.835 237.43 377.714 237.309C377.472 237.107 377.432 236.704 377.674 236.463C378.722 235.254 379.851 234.085 381.061 232.957C381.303 232.715 381.706 232.756 381.908 232.997C382.15 233.239 382.109 233.642 381.868 233.844C380.698 234.931 379.569 236.1 378.561 237.269C378.44 237.389 378.279 237.47 378.117 237.47ZM385.093 230.862C384.932 230.862 384.731 230.781 384.61 230.62C384.408 230.338 384.448 229.975 384.73 229.774C385.981 228.766 387.311 227.84 388.682 226.953C388.965 226.752 389.327 226.832 389.529 227.114C389.731 227.396 389.65 227.759 389.368 227.961C388.037 228.847 386.747 229.774 385.497 230.741C385.376 230.821 385.214 230.862 385.093 230.862ZM393.158 225.583C392.957 225.583 392.755 225.462 392.634 225.261C392.473 224.979 392.594 224.616 392.876 224.455C394.287 223.689 395.739 222.924 397.191 222.239C397.473 222.077 397.836 222.239 397.997 222.521C398.158 222.803 397.997 223.165 397.715 223.327C396.263 224.012 394.852 224.737 393.44 225.503C393.36 225.543 393.239 225.583 393.158 225.583ZM401.868 221.433C401.626 221.433 401.384 221.272 401.304 221.07C401.183 220.748 401.344 220.425 401.626 220.264C403.118 219.66 404.65 219.096 406.183 218.572C406.505 218.451 406.828 218.612 406.949 218.935C407.07 219.257 406.909 219.579 406.586 219.7C405.054 220.224 403.562 220.788 402.11 221.392C402.029 221.433 401.949 221.433 401.868 221.433ZM410.981 218.29C410.699 218.29 410.457 218.129 410.417 217.847C410.336 217.524 410.497 217.202 410.82 217.081C412.352 216.638 413.925 216.235 415.498 215.872C415.82 215.792 416.143 215.993 416.223 216.315C416.304 216.638 416.102 216.96 415.78 217.041C414.207 217.403 412.635 217.806 411.143 218.249C411.102 218.29 411.022 218.29 410.981 218.29ZM488.08 216.597H487.596C487.274 216.597 486.991 216.315 486.991 215.993C486.991 215.671 487.274 215.389 487.596 215.389H488.08C489.572 215.389 491.024 215.348 492.355 215.227C492.677 215.187 492.959 215.469 493 215.792C493.04 216.114 492.758 216.396 492.435 216.436C491.104 216.517 489.613 216.597 488.08 216.597ZM482.798 216.396C481.306 216.315 479.733 216.154 477.919 215.993C477.596 215.953 477.354 215.671 477.394 215.348C477.435 215.026 477.717 214.784 478.04 214.824C479.814 214.986 481.386 215.147 482.838 215.227C483.161 215.268 483.443 215.55 483.403 215.872C483.362 216.154 483.12 216.396 482.798 216.396ZM420.377 216.074C420.094 216.074 419.852 215.872 419.772 215.59C419.691 215.268 419.933 214.945 420.256 214.865C421.828 214.583 423.441 214.301 425.054 214.059C425.377 214.019 425.699 214.22 425.74 214.583C425.78 214.905 425.578 215.227 425.216 215.268C423.603 215.509 422.03 215.751 420.498 216.074C420.417 216.074 420.377 216.074 420.377 216.074ZM497.193 215.792C496.911 215.792 496.669 215.59 496.589 215.308C496.508 214.986 496.75 214.663 497.072 214.583C498.645 214.26 500.218 213.857 501.629 213.374C501.952 213.253 502.274 213.414 502.395 213.736C502.516 214.059 502.355 214.381 502.032 214.502C500.54 215.026 498.927 215.429 497.274 215.751C497.274 215.792 497.234 215.792 497.193 215.792ZM473.201 215.509C473.16 215.509 473.16 215.509 473.12 215.509L471.668 215.348C470.539 215.227 469.451 215.107 468.322 214.986C467.999 214.945 467.757 214.663 467.797 214.341C467.838 214.019 468.12 213.777 468.443 213.817C469.572 213.938 470.701 214.059 471.789 214.18L473.241 214.341C473.564 214.381 473.806 214.663 473.765 215.026C473.765 215.268 473.483 215.509 473.201 215.509ZM429.893 214.663C429.57 214.663 429.329 214.422 429.288 214.139C429.248 213.817 429.49 213.495 429.812 213.454C431.385 213.293 432.998 213.132 434.651 213.011C434.974 212.971 435.256 213.253 435.296 213.575C435.337 213.898 435.055 214.18 434.732 214.22C433.119 214.341 431.506 214.502 429.933 214.663C429.933 214.663 429.933 214.663 429.893 214.663ZM463.604 214.583H463.563C461.95 214.462 460.337 214.341 458.765 214.26C458.442 214.22 458.16 213.938 458.2 213.616C458.241 213.293 458.523 213.011 458.846 213.051C460.418 213.132 462.031 213.253 463.684 213.374C464.007 213.414 464.249 213.696 464.249 214.019C464.168 214.341 463.926 214.583 463.604 214.583ZM453.966 213.978C452.313 213.898 450.7 213.857 449.128 213.857C448.805 213.857 448.523 213.575 448.523 213.253C448.523 212.931 448.805 212.649 449.128 212.649C450.7 212.689 452.313 212.729 453.966 212.769C454.289 212.769 454.571 213.051 454.531 213.414C454.571 213.736 454.289 213.978 453.966 213.978ZM439.49 213.978C439.168 213.978 438.885 213.736 438.885 213.414C438.885 213.092 439.127 212.81 439.45 212.769C441.022 212.689 442.676 212.649 444.289 212.649C444.611 212.649 444.894 212.931 444.894 213.253C444.894 213.575 444.611 213.857 444.289 213.857C442.716 213.857 441.103 213.898 439.49 213.978C439.53 213.978 439.53 213.978 439.49 213.978ZM506.266 212.649C506.065 212.649 505.823 212.528 505.742 212.326C505.581 212.044 505.702 211.681 505.984 211.52C507.355 210.795 508.686 209.908 509.936 208.982C510.218 208.78 510.581 208.821 510.782 209.103C510.984 209.385 510.944 209.747 510.662 209.949C509.331 210.956 507.96 211.843 506.548 212.608C506.468 212.608 506.387 212.649 506.266 212.649ZM513.968 206.846C513.807 206.846 513.645 206.806 513.525 206.685C513.283 206.443 513.283 206.081 513.525 205.839C514.613 204.751 515.662 203.582 516.67 202.293C516.871 202.051 517.275 201.97 517.517 202.212C517.758 202.414 517.839 202.817 517.597 203.058C516.549 204.348 515.46 205.597 514.331 206.725C514.25 206.806 514.089 206.846 513.968 206.846ZM519.936 199.351C519.815 199.351 519.694 199.311 519.613 199.271C519.331 199.11 519.25 198.707 519.452 198.425C520.299 197.135 521.105 195.725 521.871 194.314C522.033 194.032 522.396 193.912 522.678 194.073C522.96 194.234 523.081 194.597 522.92 194.879C522.154 196.329 521.307 197.739 520.46 199.069C520.339 199.23 520.138 199.351 519.936 199.351Z" fill="#EAEAEA"/>
<path d="M524.708 189.964C524.627 189.964 524.546 189.964 524.466 189.924C524.143 189.803 524.022 189.44 524.143 189.118C524.466 188.392 524.788 187.667 525.071 186.901C525.192 186.579 525.555 186.458 525.877 186.579C526.2 186.7 526.321 187.063 526.2 187.385C525.877 188.151 525.555 188.916 525.232 189.641C525.151 189.843 524.95 189.964 524.708 189.964Z" fill="#EAEAEA"/>
<path d="M551.576 136.826C551.946 137.095 552.156 137.532 552.136 137.989L549.94 187.568C549.823 190.208 546.596 191.418 544.772 189.506L532.195 176.324C531.291 175.376 531.097 173.968 531.73 172.821C535.678 165.677 549.484 140.734 551.982 136.836C552.098 136.655 552.016 136.044 551.849 135.909V135.909C551.71 135.796 551.455 135.872 551.373 136.03C549.606 139.435 534.021 164.389 529.614 171.433C528.92 172.543 527.597 173.057 526.33 172.729L508.706 168.159C506.146 167.495 505.635 164.084 507.887 162.699L550.061 136.768C550.531 136.479 551.129 136.502 551.576 136.826V136.826Z" fill="#002E57"/>
<path opacity="0.06" d="M569.287 431.676H404V303.498H581.465V419.547C581.465 426.236 576.021 431.676 569.287 431.676Z" fill="#2E4661"/>
<path d="M575.658 423.617H408.597V295.036H587.272V412.012C587.272 418.419 582.07 423.617 575.658 423.617Z" fill="#EDF0F2"/>
<g filter="url(#filter3_d)">
<path d="M592.271 284.999H409.271C406.51 284.999 404.271 287.238 404.271 289.999V433.999C404.271 436.761 406.51 438.999 409.271 438.999H592.271C595.033 438.999 597.271 436.761 597.271 433.999V289.999C597.271 287.238 595.033 284.999 592.271 284.999Z" fill="white"/>
</g>
<path d="M592.76 284.999H409.271C406.51 284.999 404.271 287.238 404.271 289.999V309.26H597.76V289.999C597.76 287.238 595.521 284.999 592.76 284.999Z" fill="#002E57"/>
<path d="M461.028 371.954H434.693C433.589 371.954 432.693 372.85 432.693 373.954V375.406C432.693 376.511 433.589 377.406 434.693 377.406H461.028C462.133 377.406 463.028 376.511 463.028 375.406V373.954C463.028 372.85 462.133 371.954 461.028 371.954Z" fill="white"/>
<path d="M424.495 297.266C424.495 299.447 422.855 301.083 420.669 301.083C418.482 301.083 416.843 299.447 416.843 297.266C416.843 295.086 418.482 293.45 420.669 293.45C422.855 293.45 424.495 295.086 424.495 297.266Z" fill="#349D96"/>
<path d="M440.073 297.266C440.073 299.446 438.433 301.082 436.247 301.082C434.06 301.082 432.421 299.446 432.421 297.266C432.421 295.085 434.06 293.449 436.247 293.449C438.16 293.177 440.073 295.085 440.073 297.266Z" fill="#349D96"/>
<path d="M455.65 297.265C455.65 299.446 454.01 301.082 451.824 301.082C449.637 301.082 447.997 299.446 447.997 297.265C447.997 295.085 449.637 293.449 451.824 293.449C453.737 293.177 455.65 295.085 455.65 297.265Z" fill="#349D96"/>
<path opacity="0.48" d="M590.707 333.879V333.476H568.77V311.999H568.367V333.517H542.076V311.999H541.673V333.517H515.382V311.999H514.979V333.517H488.687V311.999H488.284V333.517H461.993V311.999H461.59V333.517H435.299V311.999H434.896V333.517H413V333.92H434.896V358.217H413V358.62H434.896V382.918H413V383.321H434.896V407.619H413V408.022H434.896V430.627H435.299V408.022H461.59V430.627H461.993V408.022H488.284V430.627H488.687V408.022H514.979V430.627H515.382V408.022H541.673V430.627H542.076V408.022H568.367V430.627H568.77V408.022H590.707V407.619H568.77V383.321H590.707V382.918H568.77V358.62H590.707V358.217H568.77V333.92H590.707V333.879ZM541.673 333.879V358.177H515.382V333.879H541.673ZM488.687 358.58H514.979V382.878H488.687V358.58ZM488.325 382.878H462.033V358.58H488.325V382.878ZM515.382 358.58H541.673V382.878H515.382V358.58ZM514.979 333.879V358.177H488.687V333.879H514.979ZM488.325 333.879V358.177H462.033V333.879H488.325ZM435.339 333.879H461.63V358.177H435.339V333.879V333.879ZM435.339 358.58H461.63V382.878H435.339V358.58V358.58ZM435.339 407.578V383.281H461.63V407.578H435.339ZM462.033 407.578V383.281H488.325V407.578H462.033ZM488.687 407.578V383.281H514.979V407.578H488.687ZM515.382 407.578V383.281H541.673V407.578H515.382ZM568.367 407.578H542.076V383.281H568.367V407.578ZM568.367 382.878H542.076V358.58H568.367V382.878ZM568.367 358.177H542.076V333.879H568.367V358.177Z" fill="#E1E1E1"/>
<path d="M575.222 328.999C572.198 328.999 569.778 331.457 569.778 334.439C569.778 335.97 570.383 337.34 571.391 338.307C565.06 343.747 558.729 349.187 552.439 354.627C551.955 355.03 551.471 355.473 550.987 355.876C550.06 355.11 548.85 354.667 547.56 354.667C544.536 354.667 542.116 357.125 542.116 360.107C542.116 362.041 543.124 363.693 544.616 364.66C543.245 368.005 541.834 371.309 540.463 374.653C539.858 376.064 539.293 377.474 538.689 378.924C538.285 378.844 537.882 378.763 537.439 378.763C535.422 378.763 533.688 379.851 532.721 381.463C526.632 377.595 520.503 373.767 514.414 369.898C509.897 367.038 505.381 364.177 500.825 361.316C501.067 360.671 501.228 360.026 501.228 359.301C501.228 356.279 498.768 353.861 495.784 353.861C492.8 353.861 490.34 356.319 490.34 359.301C490.34 359.664 490.381 360.067 490.461 360.429C481.913 363.935 473.324 367.4 464.775 370.906C463.928 371.268 463.082 371.591 462.275 371.953C461.428 370.019 459.533 368.69 457.275 368.69C454.251 368.69 451.831 371.148 451.831 374.129C451.831 375.701 452.476 377.111 453.565 378.078C452.275 379.529 451.025 380.98 449.734 382.39C443.646 389.28 437.597 396.171 431.508 403.061C430.621 402.457 429.573 402.134 428.444 402.134C425.419 402.134 423 404.592 423 407.574C423 410.596 425.46 413.014 428.444 413.014C431.468 413.014 433.887 410.556 433.887 407.574C433.887 406.405 433.524 405.317 432.879 404.431C438.081 398.548 443.242 392.665 448.444 386.782C450.702 384.243 452.96 381.665 455.178 379.126C455.823 379.368 456.509 379.529 457.235 379.529C460.259 379.529 462.678 377.071 462.678 374.089C462.678 374.009 462.678 373.928 462.678 373.888C462.799 373.847 462.92 373.767 463.041 373.726C472.437 369.898 481.792 366.07 491.187 362.242C492.155 363.733 493.849 364.741 495.784 364.741C497.357 364.741 498.768 364.056 499.776 363.008C503.889 365.587 508.002 368.206 512.075 370.785C518.728 374.976 525.382 379.207 532.035 383.397C531.995 383.679 531.955 383.921 531.955 384.203C531.955 387.225 534.414 389.643 537.398 389.643C540.423 389.643 542.842 387.185 542.842 384.203C542.842 382.309 541.874 380.657 540.423 379.69C542.398 374.935 544.374 370.181 546.35 365.426C546.713 365.506 547.116 365.547 547.479 365.547C550.503 365.547 552.923 363.089 552.923 360.107C552.923 359.099 552.641 358.173 552.157 357.367C553.286 356.4 554.375 355.433 555.504 354.466C560.302 350.356 565.101 346.205 569.859 342.095C570.907 341.209 571.915 340.322 572.964 339.436C573.609 339.718 574.335 339.879 575.101 339.879C578.125 339.879 580.545 337.421 580.545 334.439C580.666 331.417 578.206 328.999 575.222 328.999Z" fill="#349D96"/>
<defs>
<filter id="filter0_d" x="9" y="166" width="141" height="99.586" filterUnits="userSpaceOnUse" color-interpolation-filters="sRGB">
<feFlood flood-opacity="0" result="BackgroundImageFix"/>
<feColorMatrix in="SourceAlpha" type="matrix" values="0 0 0 0 0 0 0 0 0 0 0 0 0 0 0 0 0 0 127 0"/>
<feOffset dy="4"/>
<feGaussianBlur stdDeviation="5"/>
<feColorMatrix type="matrix" values="0 0 0 0 0 0 0 0 0 0 0 0 0 0 0 0 0 0 0.11 0"/>
<feBlend mode="normal" in2="BackgroundImageFix" result="effect1_dropShadow"/>
<feBlend mode="normal" in="SourceGraphic" in2="effect1_dropShadow" result="shape"/>
</filter>
<filter id="filter1_d" x="179" y="161" width="244" height="316" filterUnits="userSpaceOnUse" color-interpolation-filters="sRGB">
<feFlood flood-opacity="0" result="BackgroundImageFix"/>
<feColorMatrix in="SourceAlpha" type="matrix" values="0 0 0 0 0 0 0 0 0 0 0 0 0 0 0 0 0 0 127 0"/>
<feOffset dy="4"/>
<feGaussianBlur stdDeviation="5"/>
<feColorMatrix type="matrix" values="0 0 0 0 0.0352941 0 0 0 0 0.27451 0 0 0 0 0.258824 0 0 0 0.46 0"/>
<feBlend mode="normal" in2="BackgroundImageFix" result="effect1_dropShadow"/>
<feBlend mode="normal" in="SourceGraphic" in2="effect1_dropShadow" result="shape"/>
</filter>
<filter id="filter2_d" x="44" y="270.999" width="167" height="235" filterUnits="userSpaceOnUse" color-interpolation-filters="sRGB">
<feFlood flood-opacity="0" result="BackgroundImageFix"/>
<feColorMatrix in="SourceAlpha" type="matrix" values="0 0 0 0 0 0 0 0 0 0 0 0 0 0 0 0 0 0 127 0"/>
<feOffset dy="4"/>
<feGaussianBlur stdDeviation="5"/>
<feColorMatrix type="matrix" values="0 0 0 0 0 0 0 0 0 0 0 0 0 0 0 0 0 0 0.11 0"/>
<feBlend mode="normal" in2="BackgroundImageFix" result="effect1_dropShadow"/>
<feBlend mode="normal" in="SourceGraphic" in2="effect1_dropShadow" result="shape"/>
</filter>
<filter id="filter3_d" x="394.271" y="278.999" width="213" height="174" filterUnits="userSpaceOnUse" color-interpolation-filters="sRGB">
<feFlood flood-opacity="0" result="BackgroundImageFix"/>
<feColorMatrix in="SourceAlpha" type="matrix" values="0 0 0 0 0 0 0 0 0 0 0 0 0 0 0 0 0 0 127 0"/>
<feOffset dy="4"/>
<feGaussianBlur stdDeviation="5"/>
<feColorMatrix type="matrix" values="0 0 0 0 0 0 0 0 0 0 0 0 0 0 0 0 0 0 0.11 0"/>
<feBlend mode="normal" in2="BackgroundImageFix" result="effect1_dropShadow"/>
<feBlend mode="normal" in="SourceGraphic" in2="effect1_dropShadow" result="shape"/>
</filter>
<radialGradient id="paint0_radial" cx="0" cy="0" r="1" gradientUnits="userSpaceOnUse" gradientTransform="translate(297 242.5) rotate(88.9607) scale(220.536 166.892)">
<stop stop-color="#0A5B56"/>
<stop offset="0.935389" stop-color="#000404"/>
</radialGradient>
</defs>
</svg>
